# xmcd
#
# Track frame offsets:
#	150
#	17705
#	39764
#	55657
#
# Disc length: 923 seconds
# Revision: 0
# Processed by: cddbd v1.5.2PL0 Copyright (c) Steve Scherf et al.
# Submitted via: dBpowerAMP V12.0
#
DISCID=22039904
DTITLE=Jeannine Barry - Bittersweet
DYEAR=2016
DGENRE=Country
TTITLE0=Bittersweet
TTITLE1=Burning Bridges
TTITLE2=Shake You Off
TTITLE3=Holding On
EXTD=
EXTT0=
EXTT1=
EXTT2=
EXTT3=
PLAYORDER=
